<?xml version="1.0" encoding="UTF-8" standalone="no"?>
<svg
   xmlns:dc="http://purl.org/dc/elements/1.1/"
   xmlns:cc="http://creativecommons.org/ns#"
   xmlns:rdf="http://www.w3.org/1999/02/22-rdf-syntax-ns#"
   xmlns:svg="http://www.w3.org/2000/svg"
   xmlns="http://www.w3.org/2000/svg"
   viewBox="0 0 241.90668 41.200001"
   height="41.200001"
   width="241.90668"
   xml:space="preserve"
   id="svg2"
   version="1.1"><metadata
     id="metadata8"><rdf:RDF><cc:Work
         rdf:about=""><dc:format>image/svg+xml</dc:format><dc:type
           rdf:resource="http://purl.org/dc/dcmitype/StillImage" /></cc:Work></rdf:RDF></metadata><defs
     id="defs6" /><g
     transform="matrix(1.3333333,0,0,-1.3333333,0,41.2)"
     id="g10"><g
       transform="scale(0.1)"
       id="g12"><path
         id="path14"
         style="fill:#d21c2d;fill-opacity:1;fill-rule:nonzero;stroke:none"
         d="m 844.266,38.5781 h -21.961 l -134.34,177.2379 -1.219,0.043 V 103.648 c 0,-31.5113 4.02,-42.9019 36.199,-46.9292 V 44.3164 h -86.808 v 12.4024 c 29.828,4.3593 34.179,15.0898 34.179,46.9292 v 118.29 c 0,16.332 -12.269,30.031 -31.871,30.031 -19.601,0 -31.871,-13.699 -31.871,-30.031 V 114.707 c 0,-43.2382 -29.168,-75.75 -85.469,-75.75 -56.308,0 -90.492,25.1407 -90.492,74.41 v 8.121 62.219 38.231 c 0,16.332 -12.367,29.91 -31.968,29.91 -19.598,0 -31.969,-13.578 -31.969,-29.91 v -6.11 h -14.082 c -10.957,31.149 -31.469,39.602 -55.938,39.602 -20.453,0 -35.531,-13.41 -35.531,-35.192 0,-22.789 16.43,-30.172 53.301,-41.898 30.828,-10.051 63.668,-23.121 63.668,-64.684 0,-37.199 -22.117,-75.0779 -78.758,-75.0779 -18.102,0 -38.883,3.6992 -51.949,10.0508 L 236.145,38.5781 h -14.231 v 69.2809 h 16.473 c 17.097,-37.8629 37.816,-54.8707 65.648,-54.8707 29.149,0 41.219,19.7812 41.219,37.5508 0,23.1169 -14.75,31.8279 -53.289,44.5699 -33.852,10.719 -67.371,23.789 -67.371,65.02 0,42.23 29.16,73.027 72.32,73.027 7.781,0 15.609,-0.418 23.27,-1.847 6.902,-1.289 15.121,-4.36 22.089,-5.442 6.348,-0.976 19.051,-1.008 26.344,-1.008 0.555,0 1.082,0 1.567,0 4.183,0 7.343,0.004 10.164,0.004 5.644,0 9.929,-0.004 18.297,-0.004 h 48.949 41.14 17.289 v -12.742 c -23.128,-1 -29.16,-3.347 -29.16,-14.41 V 115.039 c 0,-39.2109 22.121,-55.9726 57.981,-55.9726 16.429,0 29.16,5.0313 38.543,14.4102 11.058,11.4023 16.09,23.8007 16.09,48.9414 v 83.449 c 0,31.172 -7.032,42.903 -38.883,46.59 v 12.402 h 85.543 70.718 l 119.329,-157 h 1.66 v 98.008 c 0,31.172 -7.039,42.903 -38.879,46.59 v 12.402 h 87.48 v -12.402 c -29.832,-4.359 -32.179,-15.418 -32.179,-46.59 V 38.5781" /><path
         id="path16"
         style="fill:#d21c2d;fill-opacity:1;fill-rule:nonzero;stroke:none"
         d="M 111.078,38.5859 C 40.8594,38.5859 0,86.5234 0,153.047 c 0,68.187 50.6484,118.496 116.828,118.496 21.274,0 42.203,-6.758 56.043,-14.508 l 9.789,14.508 h 13.512 v -80.02 H 180.98 c -13.511,40.852 -35.8,65.512 -65.171,65.512 -34.4301,0 -64.8207,-33.43 -64.8207,-98.601 0,-66.8481 36.8008,-98.9184 72.2497,-98.9184 31.403,0 53.34,16.2696 69.223,48.3474 l 12.82,-6.078 C 189.43,65.3555 159.371,38.5859 111.078,38.5859" /><path
         id="path18"
         style="fill:#d21c2d;fill-opacity:1;fill-rule:nonzero;stroke:none"
         d="m 961.414,0 h 6.641 v 309.012 h -6.641 V 0" /><path
         id="path20"
         style="fill:#d21c2d;fill-opacity:1;fill-rule:nonzero;stroke:none"
         d="m 1074.51,196.52 c 7.28,0 9.24,3.085 9.24,9.089 0,5.704 -2.03,8.704 -9.31,8.704 h -4.74 V 196.52 Z m -23.8,-18.84 h 6.76 v 36.34 h -6.76 v 6.523 h 24.55 c 15.55,0 21.55,-6.23 21.55,-15.012 0,-8.484 -5.86,-15.242 -21.39,-15.242 h -5.72 V 177.68 h 7.29 v -6.532 h -26.28 v 6.532" /><path
         id="path22"
         style="fill:#d21c2d;fill-opacity:1;fill-rule:nonzero;stroke:none"
         d="m 1108.01,177.68 h 6.75 v 36.34 h -6.75 v 6.523 h 25.68 v -6.523 h -6.68 v -14.122 h 19.29 v 14.122 h -6.76 v 6.523 h 25.75 v -6.523 h -6.76 v -36.34 h 6.76 v -6.532 h -25.75 v 6.532 h 6.76 v 15.918 h -19.29 V 177.68 h 6.68 v -6.532 h -25.68 v 6.532" /><path
         id="path24"
         style="fill:#d21c2d;fill-opacity:1;fill-rule:nonzero;stroke:none"
         d="m 1212.98,214.086 h -5.94 v 6.457 h 19.07 v -6.523 h -5.48 l -14.04,-22.305 V 177.68 h 6.68 v -6.532 h -25.6 v 6.532 h 6.68 v 13.285 l -14.26,23.055 h -5.18 v 6.523 h 25.22 v -6.457 h -5.62 l 9.08,-15.84 9.39,15.84" /><path
         id="path26"
         style="fill:#d21c2d;fill-opacity:1;fill-rule:nonzero;stroke:none"
         d="m 1235.37,188.414 h 6.6 c 3.23,-8.406 7.36,-12.234 15.32,-12.234 5.33,0 8.34,2.625 8.34,6.531 0,4.578 -5.03,5.703 -12.55,7.578 -8.1,1.953 -17.26,4.734 -17.26,15.77 0,9.16 7.73,15.683 17.34,15.683 5.4,0 10.06,-2.019 12.61,-5.476 l 1.59,5.332 h 6.6 v -17.571 h -6.6 c -3.16,8.184 -6.84,11.485 -13.22,11.485 -5.03,0 -7.74,-2.93 -7.74,-6.297 0,-4.961 5.48,-6.082 12.91,-7.891 8.05,-1.941 16.9,-4.582 16.9,-15.312 0,-9.383 -7.43,-16.067 -18.17,-16.067 -6.16,0 -11.56,2.551 -14.34,6.008 l -1.8,-5.859 h -6.53 v 18.32" /><path
         id="path28"
         style="fill:#d21c2d;fill-opacity:1;fill-rule:nonzero;stroke:none"
         d="m 1288.69,177.68 h 6.91 v 36.34 h -6.91 v 6.523 h 26.06 v -6.523 h -6.92 v -36.34 h 6.92 v -6.532 h -26.06 v 6.532" /><path
         id="path30"
         style="fill:#d21c2d;fill-opacity:1;fill-rule:nonzero;stroke:none"
         d="m 1327.77,195.543 c 0,15.391 10.96,26.199 23.87,26.199 6.31,0 11.04,-2.176 14.05,-5.847 l 1.57,5.703 h 6.76 V 201.93 h -7.44 c -2.99,9.082 -7.2,13.66 -13.43,13.66 -7.05,0 -12.02,-5.176 -12.02,-19.293 0,-13.508 5.19,-19.289 13.67,-19.289 7.43,0 11.71,5.625 12.98,13.887 h 7.21 c -1.28,-12.762 -8.55,-20.95 -21.92,-20.95 -15.39,0 -25.3,10.364 -25.3,25.598" /><path
         id="path32"
         style="fill:#d21c2d;fill-opacity:1;fill-rule:nonzero;stroke:none"
         d="m 1401.65,192.848 h 12.92 l -6.24,18.465 h -0.29 z m 14.87,-5.938 h -16.89 l -3.15,-9.23 h 6.23 v -6.532 h -19 v 6.532 h 5.4 l 15.92,43.164 h 12.32 l 15.69,-43.164 h 5.85 v -6.532 h -25.9 v 6.532 h 6.68 l -3.15,9.23" /><path
         id="path34"
         style="fill:#d21c2d;fill-opacity:1;fill-rule:nonzero;stroke:none"
         d="m 1474.94,220.543 v -6.379 h -7.44 v -36.641 h 8.42 c 5.93,0 7.21,1.504 10.43,14.043 h 5.93 v -20.418 h -43.76 v 6.532 h 6.75 v 36.34 h -6.75 v 6.523 h 26.42" /><path
         id="path36"
         style="fill:#d21c2d;fill-opacity:1;fill-rule:nonzero;stroke:none"
         d="m 1548.2,196.52 c 7.29,0 9.24,3.085 9.24,9.089 0,5.704 -2.03,8.704 -9.3,8.704 h -4.74 V 196.52 Z m -23.78,-18.84 h 6.74 v 36.34 h -6.74 v 6.523 h 24.54 c 15.54,0 21.55,-6.23 21.55,-15.012 0,-8.484 -5.86,-15.242 -21.4,-15.242 h -5.71 V 177.68 h 7.29 v -6.532 h -26.27 v 6.532" /><path
         id="path38"
         style="fill:#d21c2d;fill-opacity:1;fill-rule:nonzero;stroke:none"
         d="m 1608.15,220.543 v -6.379 h -7.45 v -36.641 h 8.42 c 5.93,0 7.21,1.504 10.43,14.043 h 5.93 v -20.418 h -43.76 v 6.532 h 6.75 v 36.34 h -6.75 v 6.523 h 26.43" /><path
         id="path40"
         style="fill:#d21c2d;fill-opacity:1;fill-rule:nonzero;stroke:none"
         d="m 1652.68,192.848 h 12.91 l -6.23,18.465 h -0.3 z m 14.86,-5.938 h -16.88 l -3.16,-9.23 h 6.23 v -6.532 h -18.99 v 6.532 h 5.4 l 15.92,43.164 h 12.31 l 15.69,-43.164 h 5.85 v -6.532 h -25.89 v 6.532 h 6.67 l -3.15,9.23" /><path
         id="path42"
         style="fill:#d21c2d;fill-opacity:1;fill-rule:nonzero;stroke:none"
         d="m 1713.43,208.758 h -0.67 V 177.68 h 6.74 v -6.532 h -19.89 v 6.532 h 6.46 v 36.34 h -6.46 v 6.523 h 21.03 l 20.94,-34.531 h 0.68 v 28.008 h -6.76 v 6.523 h 19.89 v -6.523 h -6.45 v -43.547 h -12.32 l -23.19,38.285" /><path
         id="path44"
         style="fill:#d21c2d;fill-opacity:1;fill-rule:nonzero;stroke:none"
         d="m 1776.27,177.68 h 7.74 v 37.238 h -1.89 c -6.07,0 -7.35,-2.031 -10.13,-14.27 h -5.93 v 19.895 h 48.2 v -19.895 h -5.94 c -2.77,12.239 -4.05,14.27 -10.13,14.27 h -1.88 V 177.68 h 7.73 v -6.532 h -27.77 v 6.532" /><path
         id="path46"
         style="fill:#d21c2d;fill-opacity:1;fill-rule:nonzero;stroke:none"
         d="m 1050.79,92.6875 h 6.46 v 36.3355 h -6.46 v 6.524 h 23.8 l 10.66,-30.477 h 0.23 l 9.98,30.477 h 23.35 v -6.524 h -6.61 V 92.6875 h 6.61 v -6.5352 h -25.08 v 6.5352 h 6.24 v 34.7535 h -0.69 l -14.56,-41.3668 h -5.03 l -15.08,41.3668 h -0.68 V 92.6875 h 6.23 v -6.5352 h -19.37 v 6.5352" /><path
         id="path48"
         style="fill:#d21c2d;fill-opacity:1;fill-rule:nonzero;stroke:none"
         d="m 1146.05,107.852 h 12.91 l -6.23,18.468 h -0.29 z m 14.86,-5.938 h -16.88 l -3.15,-9.2265 h 6.23 v -6.5352 h -19 v 6.5352 h 5.4 l 15.92,43.1645 h 12.31 l 15.7,-43.1645 h 5.85 v -6.5352 h -25.9 v 6.5352 h 6.68 l -3.16,9.2265" /><path
         id="path50"
         style="fill:#d21c2d;fill-opacity:1;fill-rule:nonzero;stroke:none"
         d="m 1206.8,123.762 h -0.67 V 92.6875 h 6.75 v -6.5352 h -19.9 v 6.5352 h 6.46 v 36.3355 h -6.46 v 6.524 h 21.03 l 20.95,-34.531 h 0.67 v 28.007 h -6.76 v 6.524 h 19.9 v -6.524 h -6.46 V 85.4805 H 1230 l -23.2,38.2815" /><path
         id="path52"
         style="fill:#d21c2d;fill-opacity:1;fill-rule:nonzero;stroke:none"
         d="m 1274.53,107.852 h 12.91 l -6.23,18.468 h -0.29 z m 14.87,-5.938 h -16.89 l -3.15,-9.2265 h 6.23 v -6.5352 h -19 v 6.5352 h 5.4 l 15.92,43.1645 h 12.32 l 15.69,-43.1645 h 5.85 v -6.5352 h -25.9 v 6.5352 h 6.68 l -3.15,9.2265" /><path
         id="path54"
         style="fill:#d21c2d;fill-opacity:1;fill-rule:nonzero;stroke:none"
         d="m 1344,84.9531 c -13.74,0 -23.73,10.5078 -23.73,25.8199 0,14.942 11.34,25.977 24.1,25.977 6.24,0 10.74,-2.246 13.74,-6.152 l 1.58,6.004 h 6.83 v -19.219 h -8.33 c -2.86,9.015 -6.76,13.215 -12.54,13.215 -6.91,0 -12.02,-5.703 -12.02,-19.297 0,-12.383 4.14,-19.5901 12.4,-19.5901 3.3,0 5.4,1.4258 6.9,3.3008 1.65,1.9531 2.4,5.2543 2.4,8.8553 v 1.36 h -8.26 v 6.523 h 26.06 v -6.523 h -5.71 V 85.5586 h -6.75 l -2.86,7.4297 c -2.4,-4.5781 -6.53,-8.0352 -13.81,-8.0352" /><path
         id="path56"
         style="fill:#d21c2d;fill-opacity:1;fill-rule:nonzero;stroke:none"
         d="m 1383.42,92.6875 h 6.75 v 36.3355 h -6.75 v 6.524 h 46.99 V 117.98 h -6.53 c -1.88,9.383 -3,11.192 -9.31,11.192 H 1402.4 V 114.23 h 4.07 c 4.2,0 4.58,0.829 5.62,6.903 h 5.86 v -20.039 h -5.86 c -0.9,6.152 -1.5,7.051 -5.62,7.051 h -4.07 V 92.5313 h 11.87 c 7.59,0 8.49,2.7031 10.28,13.1447 h 6.54 V 86.1523 h -47.67 v 6.5352" /><path
         id="path58"
         style="fill:#d21c2d;fill-opacity:1;fill-rule:nonzero;stroke:none"
         d="m 1444.02,92.6875 h 6.45 v 36.3355 h -6.45 v 6.524 h 23.79 l 10.67,-30.477 h 0.22 l 9.98,30.477 h 23.35 v -6.524 h -6.6 V 92.6875 h 6.6 v -6.5352 h -25.08 v 6.5352 h 6.24 v 34.7535 h -0.68 l -14.56,-41.3668 h -5.03 l -15.09,41.3668 h -0.67 V 92.6875 h 6.23 v -6.5352 h -19.37 v 6.5352" /><path
         id="path60"
         style="fill:#d21c2d;fill-opacity:1;fill-rule:nonzero;stroke:none"
         d="m 1523.6,92.6875 h 6.74 v 36.3355 h -6.74 v 6.524 h 46.99 V 117.98 h -6.54 c -1.87,9.383 -2.99,11.192 -9.3,11.192 h -12.17 V 114.23 h 4.06 c 4.2,0 4.58,0.829 5.63,6.903 h 5.86 v -20.039 h -5.86 c -0.9,6.152 -1.51,7.051 -5.63,7.051 h -4.06 V 92.5313 h 11.86 c 7.59,0 8.49,2.7031 10.29,13.1447 h 6.53 V 86.1523 h -47.66 v 6.5352" /><path
         id="path62"
         style="fill:#d21c2d;fill-opacity:1;fill-rule:nonzero;stroke:none"
         d="m 1598.01,123.762 h -0.67 V 92.6875 h 6.74 v -6.5352 h -19.89 v 6.5352 h 6.46 v 36.3355 h -6.46 v 6.524 h 21.03 l 20.94,-34.531 h 0.68 v 28.007 h -6.76 v 6.524 h 19.89 v -6.524 h -6.45 V 85.4805 h -12.32 l -23.19,38.2815" /><path
         id="path64"
         style="fill:#d21c2d;fill-opacity:1;fill-rule:nonzero;stroke:none"
         d="m 1660.85,92.6875 h 7.74 v 37.2345 h -1.89 c -6.07,0 -7.35,-2.031 -10.13,-14.266 h -5.93 v 19.891 h 48.2 v -19.891 h -5.94 c -2.77,12.235 -4.05,14.266 -10.13,14.266 h -1.88 V 92.6875 h 7.73 v -6.5352 h -27.77 v 6.5352" /></g></g></svg>